<svg width="358" height="572" viewBox="0 0 358 572" fill="none" xmlns="http://www.w3.org/2000/svg">
<rect width="357.352" height="571.086" rx="17.182" fill="url(#paint0_linear_8_5255)"/>
<rect width="357.352" height="571.086" rx="17.182" fill="#FF394A"/>
<path d="M261.668 542.576L251.264 542.576L257.855 502.058L268.257 502.058L261.668 542.576Z" fill="white"/>
<path d="M299.457 503.055C297.406 502.235 294.155 501.329 290.13 501.329C279.859 501.329 272.612 506.845 272.553 514.734C272.455 520.552 277.714 523.784 281.647 525.726C285.667 527.708 287.031 529.003 287.027 530.769C286.981 533.483 283.768 534.734 280.773 534.734C276.62 534.734 274.396 534.09 271.019 532.579L269.65 531.932L268.176 541.027C270.614 542.147 275.106 543.142 279.773 543.185C290.686 543.185 297.802 537.753 297.905 529.348C297.955 524.736 295.182 521.2 289.195 518.313C285.562 516.458 283.337 515.209 283.341 513.313C283.387 511.587 285.233 509.822 289.339 509.822C292.721 509.736 295.204 510.553 297.083 511.373L298.025 511.802L299.457 503.055Z" fill="white"/>
<path d="M313.229 528.224C314.091 525.897 317.406 516.888 317.406 516.888C317.363 516.974 318.266 514.519 318.783 513.009L319.504 516.502C319.504 516.502 321.452 526.199 321.877 528.224C320.251 528.224 315.286 528.224 313.229 528.224ZM326.125 502.061L318.08 502.061C315.597 502.061 313.71 502.794 312.634 505.424L297.108 542.579L308.021 542.579C308.021 542.579 309.828 537.579 310.218 536.5C311.415 536.5 322.033 536.5 323.573 536.5C323.868 537.924 324.801 542.579 324.801 542.579L334.433 542.579L326.125 502.061Z" fill="white"/>
<path d="M242.663 502.059L232.419 529.69L231.319 524.085C229.447 517.62 223.556 510.596 216.972 507.103L226.23 542.534L237.229 542.534L253.662 502.059L242.663 502.059Z" fill="white"/>
<path d="M223.015 502.056L206.28 502.056L206.107 502.876C219.155 506.237 227.784 514.342 231.317 524.084L227.716 505.463C227.124 502.876 225.284 502.142 223.015 502.056Z" fill="white"/>
<g clip-path="url(#clip0_8_5255)">
<path d="M229.575 232.133H128.316V324.165H229.575V232.133Z" fill="#E84142"/>
<path fill-rule="evenodd" clip-rule="evenodd" d="M260.945 286C260.945 331.228 224.258 367.891 179 367.891C133.743 367.891 97.0544 331.228 97.0544 286C97.0544 240.773 133.743 204.109 179 204.109C224.258 204.109 260.945 240.773 260.945 286ZM155.779 318.589H139.876C136.534 318.589 134.883 318.589 133.877 317.945C132.79 317.241 132.125 316.074 132.045 314.786C131.984 313.6 132.81 312.151 134.46 309.254L173.728 240.086C175.399 237.149 176.244 235.68 177.311 235.137C178.458 234.554 179.827 234.554 180.975 235.137C182.042 235.68 182.887 237.149 184.558 240.086L192.631 254.168L192.672 254.24C194.476 257.391 195.391 258.989 195.791 260.666C196.234 262.497 196.234 264.428 195.791 266.259C195.388 267.949 194.483 269.558 192.651 272.757L172.024 309.194L171.971 309.287C170.155 312.464 169.234 314.074 167.958 315.289C166.569 316.617 164.898 317.582 163.066 318.126C161.395 318.589 159.523 318.589 155.779 318.589ZM195.94 318.589H218.728C222.089 318.589 223.781 318.589 224.788 317.926C225.875 317.221 226.559 316.034 226.62 314.747C226.678 313.599 225.87 312.206 224.288 309.478C224.234 309.385 224.179 309.29 224.123 309.194L212.709 289.68L212.579 289.461C210.975 286.75 210.165 285.381 209.125 284.852C207.979 284.269 206.629 284.269 205.482 284.852C204.435 285.395 203.59 286.824 201.919 289.7L190.545 309.214L190.506 309.281C188.841 312.154 188.009 313.589 188.069 314.767C188.149 316.054 188.814 317.241 189.901 317.945C190.887 318.589 192.578 318.589 195.94 318.589Z" fill="white"/>
</g>
<path d="M250.141 127.194L250.259 70.4861C250.27 65.4884 246.256 61.437 241.294 61.437L206.553 61.437C201.591 61.437 197.561 65.4884 197.55 70.4861L197.432 127.194C197.422 132.192 201.436 136.243 206.398 136.243L241.138 136.243C246.1 136.243 250.131 132.192 250.141 127.194Z" fill="url(#paint1_linear_8_5255)" stroke="#FF394A" stroke-width="0.859102"/>
<path fill-rule="evenodd" clip-rule="evenodd" d="M250.605 109.269L240.269 98.837L250.648 88.4047L249.802 87.5514L239.173 98.2337L233.433 98.2337L233.453 88.5813L233.455 87.3748L233.511 60.8307L232.313 60.8307L232.257 87.3748L215.486 87.3748L215.542 60.8307L214.344 60.8307L214.288 87.3748L214.286 88.5813L214.266 98.2337L208.524 98.2337L197.941 87.5514L197.092 88.4047L207.428 98.837L197.048 109.269L197.894 110.123L208.522 99.4403L214.263 99.4403L214.243 109.093L214.241 110.299L214.186 136.843L215.383 136.843L215.439 110.299L232.21 110.299L232.155 136.843L233.352 136.843L233.409 109.696C233.41 109.363 233.142 109.093 232.811 109.093L215.441 109.093L215.463 98.837L215.484 88.5813L232.255 88.5813L232.234 98.837C232.233 99.1702 232.5 99.4403 232.831 99.4403L239.171 99.4403L249.755 110.123L250.605 109.269Z" fill="#FF394A"/>
<path d="M282.562 117.72C281.931 117.544 281.288 116.819 281.153 116.127C281.065 115.677 281.171 115.364 281.836 114.115C284.531 109.068 285.697 104.423 285.685 98.7857C285.673 93.3372 284.624 89.0981 282.027 84.0172C281.471 82.9264 281.014 81.9136 281.014 81.7671C281.013 81.2265 281.481 80.4426 281.987 80.1353C282.684 79.7136 283.849 79.7925 284.409 80.2983C284.623 80.493 285.184 81.3764 285.653 82.2609C287.508 85.765 288.783 89.6095 289.418 93.611C289.81 96.0873 289.897 100.781 289.591 103.048C289.031 107.23 287.894 110.961 286.07 114.617C284.967 116.827 284.276 117.736 283.692 117.736C283.578 117.736 283.387 117.764 283.273 117.798C283.156 117.832 282.835 117.797 282.562 117.72ZM275.027 113.921C274.06 113.649 273.36 112.503 273.636 111.644C273.705 111.436 274.158 110.479 274.645 109.516C276.709 105.441 277.559 101.072 277.128 96.7823C276.775 93.2578 276.115 91.0351 274.461 87.7828C273.349 85.6005 273.296 85.2625 273.937 84.3839C274.549 83.5485 276.074 83.4131 276.878 84.1229C277.435 84.615 279.172 88.0987 279.841 90.0714C282.063 96.6006 281.74 103.609 278.924 110.023C277.483 113.309 276.466 114.325 275.027 113.921ZM267.259 110.068C266.662 109.808 266.144 109.197 266.004 108.582C265.918 108.208 266.064 107.793 266.769 106.406C269.367 101.312 269.384 96.405 266.825 91.429C265.7 89.2437 265.677 88.8085 266.621 87.9467C267.088 87.5215 267.286 87.4462 267.942 87.4462C269.042 87.4462 269.612 87.9798 270.6 89.9293C272.119 92.9277 272.746 95.529 272.745 98.8617C272.747 102.287 272.173 104.639 270.565 107.801C269.642 109.611 269.186 110.089 268.26 110.212C267.977 110.249 267.527 110.184 267.259 110.068ZM260.01 106.479C259.535 106.29 258.995 105.667 258.832 105.127C258.652 104.522 258.798 104.042 259.506 102.913C260.417 101.462 260.629 100.683 260.625 98.7854C260.621 96.8882 260.406 96.1089 259.489 94.6571C259.177 94.165 258.865 93.5752 258.795 93.3468C258.498 92.39 259.322 91.2173 260.43 91.0164C261.371 90.846 262.018 91.2511 262.885 92.554C265.397 96.3263 265.407 101.366 262.911 105.106C262.029 106.425 261.044 106.892 260.01 106.479Z" fill="white"/>
<defs>
<linearGradient id="paint0_linear_8_5255" x1="527.713" y1="671.432" x2="-4.00057" y2="-1.01023" gradientUnits="userSpaceOnUse">
<stop/>
<stop offset="1" stop-color="#202020"/>
</linearGradient>
<linearGradient id="paint1_linear_8_5255" x1="250.277" y1="62.0402" x2="196.95" y2="138.942" gradientUnits="userSpaceOnUse">
<stop stop-color="white"/>
<stop offset="1" stop-color="#9B9B9B"/>
</linearGradient>
<clipPath id="clip0_8_5255">
<rect width="164" height="164" fill="white" transform="translate(97 204)"/>
</clipPath>
</defs>
</svg>
